<?xml version="1.0" encoding="UTF-8"?> <svg xmlns="http://www.w3.org/2000/svg" width="494" height="231" viewBox="0 0 494 231"><g id="Group_421" data-name="Group 421" transform="translate(4130 13303)"><rect id="Rectangle_92" data-name="Rectangle 92" width="494" height="231" transform="translate(-4130 -13303)" fill="rgba(255,255,255,0)"></rect><g id="Blum-Black-Logo" transform="translate(-4068 -13237)"><path id="Path_563" data-name="Path 563" d="M146.03,98.619h28.176L206.989,6.26H178.7L146.03,98.619" transform="translate(-36.28 -1.555)" fill="#ced5db"></path><path id="Path_564" data-name="Path 564" d="M348.17,319.315h27.935l14.58-40.674c5.84-9.77,17.5-7.583,15.339.992l-13.994,39.682h29.16l13.829-38.8c3.675-9.77,18.954-10.326,15.632,1.165l-13.009,37.638h28.176l15.745-44.642c5.261-15.166-13.3-35.473-45.206-13.122-3.758-10.214-19.541-16.632-40.539-1.751l1.405-6.073H371.032L348.17,319.315" transform="translate(-125.694 -222.259)" fill="#ced5db"></path><path id="Path_565" data-name="Path 565" d="M532.646,212.75a7.854,7.854,0,1,0,5.576,2.3,7.876,7.876,0,0,0-5.576-2.3m0,14.881a7,7,0,0,1-7.057-7,5.712,5.712,0,0,1,.346-1.984,6.922,6.922,0,0,1,6.711-5.02,7,7,0,1,1,0,14.009Z" transform="translate(-169.569 -212.75)" fill="#ced5db"></path><path id="Path_566" data-name="Path 566" d="M536.509,222.578a2.007,2.007,0,0,0-.752-3.848H532v7.23h.752v-3.209h2.255c2.45.353,1.225,2.57,1.811,3.269h.819c-.646-.872.466-2.623-1.112-3.442m-.752-.639h-3.006V219.6h3.262c1.443.413.8,2.337-.271,2.337Z" transform="translate(-171.365 -214.236)" fill="#ced5db"></path><path id="Path_567" data-name="Path 567" d="M295.727,254.54H269.3L253.73,298.19c-7.764,24.621,17.03,32.79,40.652,15.783l-1.578,6.245h25.207l23.208-65.588H314.276l-13.769,37.458c-3.209,9.161-21.119,14.28-18.376.293l13.6-37.811" transform="translate(-101.871 -223.132)" fill="#ced5db"></path><path id="Path_568" data-name="Path 568" d="M137.872,249.14l10.522-30.34H120.082l-15.166,43.177-17.286,49.3h26.537l3.006-7.29c1.631,11.085,38.209,20.42,57.75-18.962,15.339-28.416-2.164-56.6-37.044-35.887m9.62,35.2c-5.261,6.478-13.648,9.77-18.488,6.539-5.261-3.5-4.96-11.491.286-19.082a28.378,28.378,0,0,1,4.088-4.84c4.953-4.667,10.612-6.185,15.159-3.209C153.91,267.23,153.038,277.436,147.5,284.336Z" transform="translate(-60.965 -214.253)" fill="#ced5db"></path><path id="Path_569" data-name="Path 569" d="M69.849,281.716s2-4.975,5.637-2.382l5.171,4.329s2.645,2.022,2.029-1.819l-3.1-26.583s-.556-4.194-3.45-1.368l-18.5,18.7S55.1,275,56.96,275.4l7.47-.06s5.261-.045,3.089,6.621L54.6,319.136H52.15l13.2-37.811s.9-3.8-1.661-3.6l-7.147.128c-3.615,0-3.758-3.931-1.338-6.23l19.916-20.074a3.833,3.833,0,0,1,6.764,2.33c.752,6.012,3.4,29.206,3.4,29.206.5,3.758-3.284,5.261-5.87,2.728l-4-3.292s-2.533-2.713-3.607.8L59.267,319.091h-2.39l12.972-37.375" transform="translate(-52.15 -222.05)" fill="#ced5db"></path></g></g></svg> 