<?xml version="1.0" encoding="UTF-8"?> <svg xmlns="http://www.w3.org/2000/svg" width="494" height="231" viewBox="0 0 494 231"><g id="Group_423" data-name="Group 423" transform="translate(4130 13303)"><rect id="Rectangle_92" data-name="Rectangle 92" width="494" height="231" transform="translate(-4130 -13303)" fill="rgba(255,255,255,0)"></rect><g id="Eegger-Black-Logo" transform="translate(-4054 -13224.743)"><rect id="Rectangle_93" data-name="Rectangle 93" width="262.76" height="26.637" transform="translate(75.659)" fill="#ced5db"></rect><path id="Path_570" data-name="Path 570" d="M163.17,303.855v24.663h46.789v-5.251a.617.617,0,0,0-.678-.671H178.626v-8.826h26.561V308.6a.625.625,0,0,0-.686-.694H178.588v-9.024H209.9v-5.244c0-.48-.312-.625-.686-.625H173.939a10.792,10.792,0,0,0-10.769,10.845" transform="translate(-87.511 -253.564)" fill="#ced5db"></path><path id="Path_571" data-name="Path 571" d="M243.639,293h35.737c.442,0,.694.175.694.625v5.236H248.319V322.03h25.646v-8.269H258.12v-5.175a.655.655,0,0,1,.709-.671h20.578a.716.716,0,0,1,.7.694v19.907H232.87V303.853A10.823,10.823,0,0,1,243.639,293" transform="translate(-104.089 -253.562)" fill="#ced5db"></path><path id="Path_572" data-name="Path 572" d="M314.993,293h35.73c.442,0,.7.175.7.625v5.236H319.657V322.03H345.3v-8.269H329.451v-5.167a.656.656,0,0,1,.694-.678h20.578a.716.716,0,0,1,.7.694v19.907H304.17V303.845A10.815,10.815,0,0,1,314.993,293" transform="translate(-121.048 -253.562)" fill="#ced5db"></path><path id="Path_573" data-name="Path 573" d="M375.61,303.855v24.663H422.4v-5.251a.617.617,0,0,0-.678-.671H391.066v-8.833h26.569V308.6a.625.625,0,0,0-.686-.694H391.036v-9.024H422.4v-5.251c0-.473-.3-.617-.686-.617H386.379a10.8,10.8,0,0,0-10.769,10.845" transform="translate(-138.039 -253.564)" fill="#ced5db"></path><path id="Path_574" data-name="Path 574" d="M0,56.45H51.537v6.623H24.16v7.751H51.529l.008,6.837H24.282v7.7H51.537l-.008,6.6L0,91.951Z" transform="translate(0 -16.997)" fill="#ced5db"></path><path id="Path_575" data-name="Path 575" d="M483.7,293c5.145,0,9.321,5.2,9.321,10.373s-4.2,10.381-9.359,10.381h-4.2L495.371,327.3s1.578,1.265-.084,1.265H478.375c-.7,0-1.029-.412-1.745-.983.564.373-15.906-13.772-15.906-13.772v14.755H445.29V303.853A10.784,10.784,0,0,1,456.044,293Zm-2.119,14.915a4.451,4.451,0,0,0,3.994-4.527c0-3.125-2.21-4.512-3.994-4.512h-20.86v9.039Z" transform="translate(-154.613 -253.562)" fill="#ced5db"></path></g></g></svg> 