<?xml version="1.0" encoding="UTF-8"?> <svg xmlns="http://www.w3.org/2000/svg" width="494" height="231" viewBox="0 0 494 231"><g id="Group_429" data-name="Group 429" transform="translate(4131 13310)"><rect id="Rectangle_92" data-name="Rectangle 92" width="494" height="231" transform="translate(-4131 -13310)" fill="rgba(255,255,255,0)"></rect><g id="Richelieu-Black-Logo" transform="translate(-4040 -13268)"><path id="Path_592" data-name="Path 592" d="M169.2,318.829l-58.128-54.185h8.145c21.158,0,31.007-9.892,31.007-31.124V202.514c0-21.232-9.848-31.124-31.007-31.124H75.31v26.387h35.545c6.984,0,9.628.874,9.628,10.127v20.218c0,9.342-2.35,10.127-9.628,10.127H75.31v27.966l53.817,52.613Z" transform="translate(-75.31 -171.39)" fill="#ced5db"></path><path id="Path_593" data-name="Path 593" d="M201.716,215.869h5.266c2.761,0,4.73.529,4.73,3.775a3.782,3.782,0,0,1-3.936,3.988h-6.059Zm-10.326,31.2h10.326V231.431h.1l8.938,15.643h12.338l-11.486-17.237c5.369,0,10.421-4.039,10.421-11.7,0-9.474-6.646-10.539-13.219-10.539H191.39Z" transform="translate(-106.14 -181.007)" fill="#ced5db"></path><path id="Path_594" data-name="Path 594" d="M236.1,212.918a15.283,15.283,0,0,0,10.634,0v33.136H236.1Zm11.6-5.273c0,3.195-2.666,3.885-6.279,3.885s-6.279-.69-6.279-3.885c0-2.974,2.446-3.885,6.279-3.885s6.279.911,6.279,3.885" transform="translate(-117.76 -179.987)" fill="#ced5db"></path><path id="Path_595" data-name="Path 595" d="M280.448,229.021a10.1,10.1,0,0,0-7.983-3.782c-5,0-7.447,2.717-7.447,7.932,0,3.826,1.968,7.447,7.124,7.447,3.672,0,6.125-1.763,8.306-4.737V245.3c-2.556,3.349-6.544,4.678-10.693,4.678-10.693,0-15.055-8.24-15.055-17.552,0-10.48,5-17.5,15.959-17.5a12.911,12.911,0,0,1,9.79,3.834Z" transform="translate(-122.955 -182.951)" fill="#ced5db"></path><path id="Path_596" data-name="Path 596" d="M292.8,205.29h10.642v13.99h.1c1.381-4.524,5-6.918,9.679-6.918,5.324,0,9.1,3.033,9.1,9.1v24.97H311.682V227.256c0-2.938-.58-4.891-3.723-4.891-3.826,0-4.517,3.195-4.517,6.911v17.185H292.8Z" transform="translate(-133.074 -180.394)" fill="#ced5db"></path><path id="Path_597" data-name="Path 597" d="M345.287,228.536a5.835,5.835,0,0,1,6.066-4.891c3.349,0,6.169,1.542,6.433,4.891Zm17.78,9a11.262,11.262,0,0,1-9.547,4.678c-4.362,0-7.6-2.2-8.343-6.228h19.359a42.6,42.6,0,0,0,.375-5.794c0-9.1-4.149-15.268-13.352-15.268-11.75,0-15.959,7.021-15.959,17.765s4.73,17.288,16.113,17.288c4.26,0,9.048-1.755,11.332-4.627Z" transform="translate(-144.441 -182.951)" fill="#ced5db"></path><rect id="Rectangle_96" data-name="Rectangle 96" width="10.642" height="41.178" transform="translate(222.922 24.896)" fill="#ced5db"></rect><path id="Path_598" data-name="Path 598" d="M398.932,212.918a15.283,15.283,0,0,0,10.634,0v33.136H398.932Zm11.6-5.273c0,3.195-2.666,3.885-6.279,3.885s-6.279-.69-6.279-3.885c0-2.974,2.446-3.885,6.279-3.885s6.279.911,6.279,3.885" transform="translate(-161.006 -179.987)" fill="#ced5db"></path><path id="Path_599" data-name="Path 599" d="M426.777,228.536a5.827,5.827,0,0,1,6.059-4.891c3.356,0,6.176,1.542,6.441,4.891Zm17.765,9a11.271,11.271,0,0,1-9.547,4.678c-4.362,0-7.608-2.2-8.35-6.228h19.388a42.6,42.6,0,0,0,.367-5.794c0-9.1-4.142-15.268-13.352-15.268-11.75,0-15.959,7.021-15.959,17.765s4.737,17.288,16.157,17.288c4.26,0,9.048-1.755,11.332-4.627Z" transform="translate(-166.085 -182.951)" fill="#ced5db"></path><path id="Path_600" data-name="Path 600" d="M479.138,242.181h-.11c-2.02,5.75-5.64,8.137-10.318,8.137-5.324,0-9.1-2.872-9.1-10.282V216.22h10.642v19.2c0,2.938.734,4.9,3.723,4.9,3.3,0,4.517-3.195,4.517-6.918V216.22h10.642v33.144h-10Z" transform="translate(-177.378 -183.297)" fill="#ced5db"></path></g></g></svg> 